<svg height="405" width="450"><path fill="transparent" stroke="black" d="M20,182.5C117.5,182.5 117.5,60.833333333333336 215,60.833333333333336"></path><path fill="transparent" stroke="black" d="M20,182.5C117.5,182.5 117.5,182.5 215,182.5"></path><path fill="transparent" stroke="black" d="M20,182.5C117.5,182.5 117.5,304.1666666666667 215,304.1666666666667"></path><path fill="transparent" stroke="black" d="M215,60.833333333333336C312.5,60.833333333333336 312.5,30.416666666666668 410,30.416666666666668"></path><path fill="transparent" stroke="black" d="M215,60.833333333333336C312.5,60.833333333333336 312.5,60.833333333333336 410,60.833333333333336"></path><path fill="transparent" stroke="black" d="M215,60.833333333333336C312.5,60.833333333333336 312.5,91.25 410,91.25"></path><path fill="transparent" stroke="black" d="M215,182.5C312.5,182.5 312.5,152.08333333333334 410,152.08333333333334"></path><path fill="transparent" stroke="black" d="M215,182.5C312.5,182.5 312.5,182.5 410,182.5"></path><path fill="transparent" stroke="black" d="M215,182.5C312.5,182.5 312.5,212.91666666666669 410,212.91666666666669"></path><path fill="transparent" stroke="black" d="M215,304.1666666666667C312.5,304.1666666666667 312.5,273.75 410,273.75"></path><path fill="transparent" stroke="black" d="M215,304.1666666666667C312.5,304.1666666666667 312.5,304.1666666666667 410,304.1666666666667"></path><path fill="transparent" stroke="black" d="M215,304.1666666666667C312.5,304.1666666666667 312.5,334.58333333333337 410,334.58333333333337"></path><g class="node" transform="translate(20, 182.5)"><circle fill="white" stroke="black" r="15"></circle><text fill="black" dx="15.5" dy="-2">13</text></g><g class="node" transform="translate(215, 60.833333333333336)"><circle fill="white" stroke="black" r="15"></circle><text fill="black" dx="15.5" dy="-2">4</text></g><g class="node" transform="translate(215, 182.5)"><circle fill="white" stroke="black" r="15"></circle><text fill="black" dx="15.5" dy="-2">8</text></g><g class="node" transform="translate(215, 304.1666666666667)"><circle fill="white" stroke="black" r="15"></circle><text fill="black" dx="15.5" dy="-2">12</text></g><g class="node" transform="translate(410, 30.416666666666668)"><circle fill="white" stroke="black" r="15"></circle><text fill="black" dx="15.5" dy="-2">1</text></g><g class="node" transform="translate(410, 60.833333333333336)"><circle fill="white" stroke="black" r="15"></circle><text fill="black" dx="15.5" dy="-2">2</text></g><g class="node" transform="translate(410, 91.25)"><circle fill="white" stroke="black" r="15"></circle><text fill="black" dx="15.5" dy="-2">3</text></g><g class="node" transform="translate(410, 152.08333333333334)"><circle fill="white" stroke="black" r="15"></circle><text fill="black" dx="15.5" dy="-2">5</text></g><g class="node" transform="translate(410, 182.5)"><circle fill="white" stroke="black" r="15"></circle><text fill="black" dx="15.5" dy="-2">6</text></g><g class="node" transform="translate(410, 212.91666666666669)"><circle fill="white" stroke="black" r="15"></circle><text fill="black" dx="15.5" dy="-2">7</text></g><g class="node" transform="translate(410, 273.75)"><circle fill="white" stroke="black" r="15"></circle><text fill="black" dx="15.5" dy="-2">9</text></g><g class="node" transform="translate(410, 304.1666666666667)"><circle fill="white" stroke="black" r="15"></circle><text fill="black" dx="15.5" dy="-2">10</text></g><g class="node" transform="translate(410, 334.58333333333337)"><circle fill="white" stroke="black" r="15"></circle><text fill="black" dx="15.5" dy="-2">11</text></g></svg>